<?xml version="1.0" encoding="UTF-8"?>
<svg width="34px" height="38px" viewBox="0 0 34 38" version="1.1" xmlns="http://www.w3.org/2000/svg" xmlns:xlink="http://www.w3.org/1999/xlink">
    <!-- Generator: Sketch 45.2 (43514) - http://www.bohemiancoding.com/sketch -->
    <title>office_icon</title>
    <desc>Created with Sketch.</desc>
    <defs></defs>
    <g id="Page-2" stroke="none" stroke-width="1" fill="none" fill-rule="evenodd">
        <g id="iPhone-7" transform="translate(-228.000000, -232.000000)" fill="#009286">
            <path d="M228,232 L228,238.251 L230.307,238.251 L230.307,269.5 L238.531,269.5 L251.348,269.5 L259.571,269.5 L259.571,238.251 L261.878,238.251 L261.878,232 L228,232 Z M230,236.251 L259.878,236.251 L259.878,234.001 L230,234.001 L230,236.251 Z M232.307,238.26 L257.571,238.26 L257.571,267.501 L251.348,267.501 L251.348,255.875 L238.531,255.875 L238.531,267.501 L232.307,267.501 L232.307,238.26 Z M240.531,267.501 L240.531,257.875 L249.347,257.875 L249.347,267.501 L240.531,267.501 Z M235.564,245.3753 L235.564,241.3753 L239.564,241.3753 L239.564,245.3753 L235.564,245.3753 Z M243.064,245.3753 L243.064,241.3753 L247.064,241.3753 L247.064,245.3753 L243.064,245.3753 Z M250.564,245.3753 L250.564,241.3753 L254.564,241.3753 L254.564,245.3753 L250.564,245.3753 Z M235.564,252.3753 L235.564,248.3753 L239.564,248.3753 L239.564,252.3753 L235.564,252.3753 Z M243.064,252.3753 L243.064,248.3753 L247.064,248.3753 L247.064,252.3753 L243.064,252.3753 Z M250.564,252.3753 L250.564,248.3753 L254.564,248.3753 L254.564,252.3753 L250.564,252.3753 Z" id="office_icon"></path>
        </g>
    </g>
</svg>